# xmcd
# 
# Track frame offsets:
#     150
#     17405
#     34345
# 
# Disc length: 670
# 
# Revision: 7
# Processed by: cddbd v1.5.2PL0 Copyright (c) Steve Scherf et al.
# Submitted via: fre:ac v1.0.31
# 
DISCID=19029c03
DTITLE=The Beautiful South - 11 Good As Gold
DYEAR=1994
DGENRE=Folk
TTITLE0=Good As Gold (Stupid A Mud)
TTITLE1=Love Adjourned
TTITLE2=Minicorrect (demo version)
EXTD=
EXTT0=
EXTT1=
EXTT2=
PLAYORDER=
